<?xml version="1.0" encoding="utf-8"?>
<!-- Generator: Adobe Illustrator 16.0.0, SVG Export Plug-In . SVG Version: 6.00 Build 0)  -->
<!DOCTYPE svg PUBLIC "-//W3C//DTD SVG 1.1//EN" "http://www.w3.org/Graphics/SVG/1.1/DTD/svg11.dtd">
<svg version="1.1" id="Layer_1" xmlns="http://www.w3.org/2000/svg" xmlns:xlink="http://www.w3.org/1999/xlink" x="0px" y="0px"
	 width="88.5px" height="64.667px" viewBox="221.5 0 88.5 64.667" enable-background="new 221.5 0 88.5 64.667"
	 xml:space="preserve">
<g>
	<path fill="#FFFFFF" d="M231.652,38.248c0.086-0.101,0.19-0.222,0.313-0.365c0.122-0.145,0.277-0.317,0.466-0.52
		c0.07-0.203,0.137-0.453,0.201-0.753c0.061-0.3,0.112-0.651,0.156-1.056c0.05-0.412,0.105-0.77,0.167-1.077
		c0.06-0.306,0.118-0.554,0.168-0.741c0.325-1.017,0.576-1.805,0.758-2.364c0.179-0.559,0.284-0.89,0.313-0.991
		c0.238-0.657,0.49-1.243,0.753-1.758c0.262-0.516,0.528-0.966,0.797-1.348c0.063-0.072,0.132-0.15,0.204-0.232
		c0.072-0.083,0.154-0.172,0.248-0.265c0.269-0.123,0.517-0.242,0.748-0.357c0.13-0.058,0.261-0.105,0.395-0.141
		c0.133-0.036,0.266-0.054,0.396-0.054c0.201,0,0.355,0.096,0.465,0.287c0.107,0.191,0.16,0.478,0.16,0.861
		c0,0.238-0.03,0.502-0.096,0.795c-0.064,0.292-0.154,0.611-0.271,0.958c-0.173,0.49-0.308,0.882-0.399,1.174
		c-0.096,0.293-0.152,0.475-0.175,0.547c-0.028,0.151-0.099,0.343-0.205,0.573c-0.108,0.231-0.253,0.513-0.433,0.845
		c-0.227,0.425-0.399,0.754-0.524,0.985c-0.128,0.229-0.2,0.367-0.223,0.41c-0.052,0.051-0.104,0.104-0.156,0.157
		c-0.055,0.054-0.11,0.108-0.168,0.168v0.248c-0.037,0.086-0.071,0.147-0.108,0.185c-0.123,0.238-0.285,0.533-0.494,0.889
		c-0.205,0.354-0.459,0.757-0.762,1.211c-0.173,0.238-0.304,0.447-0.39,0.629c-0.087,0.18-0.129,0.335-0.129,0.465v0.952
		c0.034,0.188,0.073,0.372,0.116,0.558c0.045,0.185,0.087,0.363,0.131,0.537c0.037,0.229,0.105,0.403,0.206,0.523
		c0.102,0.119,0.217,0.178,0.347,0.178c0.289,0,0.528-0.07,0.721-0.212c0.189-0.14,0.334-0.354,0.426-0.644
		c-0.192-0.078-0.344-0.17-0.448-0.274s-0.156-0.216-0.156-0.331c0.036-0.072,0.065-0.15,0.093-0.236
		c0.025-0.088,0.053-0.178,0.082-0.271c0.006-0.051,0.02-0.102,0.036-0.15c0.019-0.051,0.031-0.115,0.037-0.195
		c0.332-0.605,0.636-1.062,0.909-1.367c0.273-0.309,0.52-0.461,0.736-0.461c0.052,0,0.133,0.01,0.25,0.027
		c0.113,0.018,0.201,0.025,0.258,0.025c0.045,0,0.111-0.012,0.207-0.038c0.094-0.024,0.162-0.037,0.205-0.037
		c0.123,0,0.209,0.041,0.26,0.124s0.076,0.196,0.076,0.342c0,0.311-0.09,0.646-0.271,1.008c-0.181,0.359-0.27,0.564-0.27,0.615
		c0,0.043,0.027,0.092,0.087,0.141c0.042-0.016,0.086-0.035,0.135-0.063c0.046-0.028,0.091-0.065,0.135-0.11
		c0.028,0.097,0.073,0.203,0.134,0.326c0.063,0.123,0.131,0.264,0.203,0.422c0.033,0.051,0.061,0.096,0.073,0.137
		c0.015,0.039,0.021,0.078,0.021,0.111c-0.303,0.313-0.568,0.549-0.799,0.717c-0.23,0.164-0.427,0.254-0.586,0.27
		c-0.051,0-0.111-0.001-0.183-0.004c-0.072-0.005-0.159-0.012-0.261-0.018c-0.102,0.123-0.223,0.263-0.362,0.422
		c-0.142,0.158-0.298,0.347-0.472,0.562c-0.071,0.054-0.16,0.118-0.271,0.202c-0.106,0.082-0.229,0.186-0.366,0.309
		c-0.211,0.209-0.418,0.361-0.623,0.461c-0.205,0.098-0.412,0.146-0.621,0.146c-0.094,0-0.188-0.013-0.276-0.039
		c-0.091-0.024-0.192-0.071-0.31-0.146c-0.086-0.043-0.179-0.104-0.276-0.178c-0.095-0.074-0.202-0.164-0.317-0.266
		c-0.144-0.439-0.248-0.85-0.314-1.225c-0.064-0.375-0.098-0.731-0.098-1.07c0-0.059-0.007-0.107-0.015-0.146
		c-0.013-0.037-0.028-0.072-0.049-0.102l-0.099-0.033l-0.076,0.033l-0.107,0.105c-0.059-0.158-0.122-0.32-0.193-0.485
		C231.82,38.596,231.738,38.421,231.652,38.248z M236.663,29.451c0-0.036-0.003-0.066-0.017-0.092
		c-0.012-0.025-0.03-0.049-0.06-0.07c-0.044-0.008-0.093,0.042-0.149,0.146c-0.06,0.105-0.112,0.254-0.164,0.449
		c-0.028,0.145-0.094,0.314-0.194,0.509s-0.231,0.425-0.39,0.692c-0.139,0.231-0.271,0.489-0.401,0.773
		c-0.129,0.286-0.259,0.594-0.39,0.926c-0.164,0.389-0.289,0.732-0.366,1.028c-0.081,0.296-0.12,0.533-0.12,0.715l0.021,0.096
		c0.058-0.026,0.153-0.168,0.285-0.422c0.135-0.252,0.311-0.615,0.525-1.092c0.201-0.419,0.352-0.748,0.449-0.985
		c0.099-0.237,0.156-0.397,0.18-0.476c0.059-0.195,0.125-0.422,0.205-0.682c0.079-0.26,0.17-0.548,0.271-0.866
		c0.071-0.123,0.133-0.227,0.183-0.313c0.044-0.058,0.077-0.115,0.097-0.173C236.654,29.555,236.663,29.501,236.663,29.451z"/>
	<path fill="#FFFFFF" d="M238.125,38.248c0.164-0.172,0.419-0.379,0.762-0.625c0.344-0.246,0.598-0.447,0.764-0.606
		c0.108-0.13,0.25-0.287,0.424-0.472c0.173-0.185,0.381-0.401,0.619-0.653c0.146-0.132,0.285-0.231,0.422-0.304
		c0.139-0.072,0.275-0.108,0.412-0.108c0.174,0,0.311,0.043,0.408,0.131c0.096,0.086,0.145,0.224,0.145,0.41
		c0,0.28-0.105,0.735-0.323,1.362c-0.217,0.63-0.325,1.105-0.325,1.43c0,0.072,0.018,0.124,0.049,0.152
		c0.033,0.029,0.07,0.043,0.115,0.043l0.051-0.012c0.14-0.086,0.299-0.195,0.482-0.328c0.186-0.135,0.393-0.299,0.623-0.494
		c0.188-0.172,0.421-0.4,0.698-0.682c0.276-0.283,0.604-0.605,0.979-0.975c0.143-0.115,0.309-0.264,0.492-0.443
		c0.184-0.181,0.391-0.396,0.62-0.648c0.095-0.131,0.228-0.231,0.396-0.303c0.17-0.072,0.379-0.108,0.623-0.108
		c0.166,0,0.291,0.03,0.373,0.092c0.084,0.063,0.123,0.153,0.123,0.276c0,0.05-0.004,0.099-0.014,0.146
		c-0.012,0.048-0.021,0.093-0.027,0.136c-0.051,0.217-0.127,0.481-0.228,0.797c-0.103,0.313-0.226,0.683-0.369,1.108
		c-0.123,0.267-0.251,0.585-0.384,0.957c-0.133,0.373-0.276,0.781-0.428,1.228l0.074,0.099c0.151-0.071,0.377-0.243,0.676-0.515
		c0.297-0.271,0.674-0.631,1.127-1.088l0.435,0.996c-0.06,0.057-0.129,0.129-0.212,0.211c-0.082,0.082-0.191,0.172-0.329,0.266
		c-0.771,0.548-1.435,1.092-1.985,1.631c-0.553,0.536-0.988,1.066-1.313,1.596c-0.482,0.795-0.885,1.438-1.207,1.936
		c-0.319,0.498-0.553,0.85-0.697,1.052c-0.497,0.655-0.969,1.144-1.416,1.461c-0.445,0.317-0.884,0.476-1.31,0.476
		c-0.158,0-0.273-0.031-0.347-0.099c-0.072-0.063-0.105-0.164-0.105-0.303c0-0.072,0.018-0.162,0.051-0.271
		c0.038-0.107,0.102-0.224,0.197-0.346c0.136-0.195,0.263-0.396,0.378-0.607l0.321-0.279c0.029-0.096,0.043-0.158,0.043-0.195
		c0.029-0.035,0.07-0.079,0.123-0.13c0.055-0.05,0.119-0.108,0.188-0.173c0.052-0.131,0.188-0.346,0.406-0.646
		c0.219-0.298,0.528-0.683,0.927-1.15c0.295-0.348,0.564-0.654,0.811-0.928c0.246-0.268,0.455-0.498,0.627-0.687
		c0.031-0.058,0.061-0.125,0.093-0.204c0.034-0.08,0.062-0.159,0.082-0.238c0.094-0.188,0.196-0.414,0.307-0.683
		c0.114-0.267,0.249-0.58,0.407-0.94c0.072-0.209,0.133-0.451,0.186-0.72c0.049-0.271,0.098-0.563,0.14-0.883
		c-0.015-0.028-0.023-0.065-0.026-0.112s-0.021-0.115-0.049-0.201c-0.13,0.065-0.271,0.162-0.428,0.293
		c-0.157,0.129-0.323,0.28-0.502,0.455c-0.24,0.309-0.48,0.567-0.728,0.772c-0.245,0.204-0.485,0.362-0.726,0.471
		c-0.158,0.312-0.36,0.538-0.611,0.687c-0.247,0.15-0.533,0.224-0.859,0.224c-0.235,0-0.418-0.056-0.539-0.168
		c-0.125-0.11-0.186-0.283-0.186-0.515c0-0.043,0.006-0.098,0.018-0.16c0.01-0.066,0.025-0.143,0.049-0.229
		c-0.029-0.072-0.065-0.174-0.109-0.305c0.029-0.122,0.055-0.26,0.075-0.41c0-0.217-0.015-0.38-0.049-0.486
		c-0.032-0.109-0.085-0.164-0.156-0.164l-0.042,0.022c-0.08,0.058-0.191,0.146-0.335,0.261c-0.146,0.114-0.317,0.256-0.521,0.42
		c-0.037-0.092-0.08-0.203-0.137-0.334c-0.055-0.129-0.107-0.281-0.167-0.455c-0.014-0.043-0.032-0.082-0.055-0.119
		C238.178,38.3,238.154,38.271,238.125,38.248z"/>
</g>
<g>
	<g>
		<g>
			<path fill="#FFFFFF" d="M277.88,26.908c0.207-0.076,0.384-0.183,0.528-0.325c0.145-0.141,0.26-0.307,0.341-0.499
				c0.084-0.192,0.127-0.402,0.127-0.634c0-0.217-0.042-0.419-0.122-0.608c-0.078-0.187-0.189-0.353-0.337-0.498
				c-0.146-0.145-0.317-0.258-0.521-0.341c-0.205-0.083-0.426-0.125-0.662-0.125h-2.325v3.142h2.292
				C277.448,27.022,277.674,26.985,277.88,26.908z"/>
			<path fill="#FFFFFF" d="M271.193,36.773c-0.146,0-0.262-0.037-0.348-0.111c-0.087-0.078-0.131-0.193-0.131-0.353V21.181
				c0-0.151,0.042-0.273,0.126-0.364c0.082-0.088,0.2-0.135,0.353-0.135h7.195c0.635,0,1.233,0.122,1.797,0.363
				c0.564,0.242,1.058,0.574,1.48,0.997c0.421,0.423,0.756,0.918,1.001,1.485c0.245,0.566,0.368,1.175,0.368,1.825
				c0,0.543-0.084,1.046-0.254,1.513c-0.17,0.466-0.41,0.883-0.721,1.251c0.521,0.477,0.932,1.043,1.234,1.701
				c0.305,0.657,0.456,1.354,0.456,2.093c0,0.487-0.095,0.951-0.235,1.401c2.974-1.433,5.612-2.98,7.748-4.534
				c0.015-0.246,0.021-0.49,0.021-0.735c0-2.461-0.609-4.779-1.678-6.821c3.38-0.182,5.847,0.388,6.725,1.779
				c0.072,0.112,0.128,0.223,0.176,0.341c0.301-0.87,0.276-1.653-0.142-2.31c-0.981-1.551-3.935-2.089-7.929-1.694
				c-2.684-3.648-6.994-6.014-11.869-6.014c-8.127,0-14.717,6.592-14.717,14.718c0,0.815,0.061,1.614,0.188,2.398
				c-2.618,2.326-3.887,4.518-3.236,6.084c0.469-1.337,1.725-2.873,3.603-4.463c0.713,2.523,2.081,4.764,3.907,6.537
				c2.492-0.251,5.389-0.875,8.459-1.826h-3.578V36.773z"/>
			<path fill="#FFFFFF" d="M278.439,33.404c0.203-0.102,0.379-0.236,0.533-0.406c0.15-0.168,0.27-0.363,0.353-0.58
				c0.083-0.215,0.125-0.438,0.125-0.672c0-0.216-0.042-0.432-0.125-0.649c-0.083-0.216-0.198-0.409-0.347-0.58
				c-0.15-0.169-0.328-0.31-0.533-0.417c-0.206-0.108-0.43-0.164-0.668-0.164h-2.867v3.618h2.867
				C278.016,33.554,278.238,33.505,278.439,33.404z"/>
		</g>
		<g>
			<g>
				<path id="SVGID_198_" fill="#FFFFFF" d="M297.191,22.981c-1.143,3.45-7.241,8.253-15.685,11.956
					c-10.673,4.693-21.039,5.865-23.161,2.618c-0.068-0.106-0.133-0.229-0.189-0.349c-0.301,0.91-0.252,1.735,0.189,2.416
					c1.229,1.875,5.231,2.276,10.453,1.359c2.207,1.33,4.796,2.092,7.557,2.092c6.869,0,12.637-4.712,14.26-11.074
					C295.498,28.623,298.146,25.189,297.191,22.981z"/>
			</g>
			<g>
				<defs>
					<path id="SVGID_1_" d="M297.191,22.981c-1.143,3.45-7.241,8.253-15.685,11.956c-10.673,4.693-21.039,5.865-23.161,2.618
						c-0.068-0.106-0.133-0.229-0.189-0.349c-0.301,0.91-0.252,1.735,0.189,2.416c1.229,1.875,5.231,2.276,10.453,1.359
						c2.207,1.33,4.796,2.092,7.557,2.092c6.869,0,12.637-4.712,14.26-11.074C295.498,28.623,298.146,25.189,297.191,22.981z"/>
				</defs>
				<clipPath id="SVGID_2_">
					<use xlink:href="#SVGID_1_"  overflow="visible"/>
				</clipPath>
				<rect x="257.855" y="22.981" clip-path="url(#SVGID_2_)" fill="#FFFFFF" width="40.291" height="20.093"/>
			</g>
		</g>
	</g>
	<g>
		<g>
			<path fill="#FFFFFF" d="M255.667,45.46c0-0.086,0.022-0.154,0.069-0.203c0.048-0.053,0.115-0.08,0.201-0.08h4.133
				c0.367,0,0.711,0.07,1.035,0.207c0.321,0.138,0.604,0.324,0.849,0.564c0.241,0.236,0.437,0.516,0.573,0.836
				c0.145,0.319,0.214,0.664,0.214,1.031c0,0.303-0.048,0.587-0.146,0.854c-0.1,0.265-0.236,0.498-0.414,0.705
				c0.299,0.271,0.533,0.592,0.707,0.961c0.176,0.371,0.262,0.766,0.262,1.18c0,0.369-0.07,0.723-0.215,1.059
				c-0.146,0.332-0.344,0.622-0.59,0.875c-0.248,0.248-0.533,0.445-0.865,0.594c-0.33,0.146-0.678,0.223-1.043,0.223h-4.5
				c-0.08,0-0.146-0.02-0.197-0.063c-0.049-0.043-0.073-0.111-0.073-0.203V45.46L255.667,45.46z M260.352,47.871
				c0-0.123-0.023-0.236-0.067-0.344c-0.046-0.105-0.11-0.197-0.193-0.279s-0.184-0.145-0.3-0.188
				c-0.117-0.05-0.245-0.075-0.38-0.075h-1.336v1.777h1.315c0.143,0,0.272-0.023,0.391-0.066c0.119-0.043,0.22-0.104,0.302-0.183
				c0.085-0.078,0.149-0.173,0.197-0.282S260.352,48.003,260.352,47.871 M260.682,51.425c0-0.12-0.023-0.245-0.07-0.367
				c-0.049-0.121-0.115-0.232-0.199-0.327c-0.086-0.097-0.188-0.172-0.309-0.233c-0.117-0.064-0.246-0.096-0.381-0.096h-1.647v2.047
				h1.647c0.135,0,0.264-0.029,0.379-0.087c0.117-0.058,0.221-0.135,0.307-0.229c0.087-0.096,0.154-0.203,0.203-0.328
				C260.658,51.683,260.682,51.556,260.682,51.425"/>
			<path fill="#FFFFFF" d="M265.068,45.46c0-0.086,0.023-0.154,0.072-0.203c0.047-0.053,0.114-0.08,0.2-0.08h6.175
				c0.09,0,0.162,0.027,0.211,0.084c0.051,0.052,0.076,0.121,0.076,0.211v1.513c0,0.073-0.025,0.136-0.076,0.198
				c-0.049,0.064-0.121,0.094-0.218,0.094h-4.03v1.52h3.108c0.081,0,0.146,0.019,0.197,0.055c0.051,0.035,0.077,0.095,0.077,0.182
				v1.323c0,0.056-0.021,0.11-0.067,0.163c-0.046,0.057-0.112,0.082-0.198,0.082h-3.117v1.564h4.18c0.188,0,0.281,0.094,0.281,0.278
				v1.539c0,0.04-0.017,0.077-0.051,0.108c-0.018,0.115-0.101,0.173-0.255,0.173h-6.293c-0.081,0-0.147-0.021-0.198-0.063
				c-0.05-0.043-0.074-0.111-0.074-0.201V45.46L265.068,45.46z"/>
		</g>
		<g>
			<g>
				<path id="SVGID_200_" fill="#FFFFFF" d="M276.693,46.908h0.859c0.118,0,0.229,0,0.332,0.01c0.104,0.006,0.211,0.013,0.327,0.022
					c0.14,0.021,0.271,0.063,0.386,0.131c0.116,0.073,0.217,0.155,0.299,0.259c0.084,0.102,0.148,0.215,0.192,0.336
					c0.046,0.123,0.067,0.244,0.067,0.369c0,0.129-0.021,0.256-0.062,0.383c-0.042,0.121-0.103,0.233-0.181,0.336
					c-0.077,0.098-0.178,0.184-0.292,0.248c-0.116,0.068-0.247,0.111-0.394,0.125c-0.07,0.013-0.136,0.015-0.191,0.021
					c-0.061,0.002-0.125,0.005-0.2,0.005h-1.146v-2.244H276.693z M274.559,45.035c-0.091,0-0.158,0.024-0.205,0.082
					c-0.045,0.047-0.069,0.114-0.069,0.198v8.543c0,0.088,0.028,0.154,0.077,0.197c0.048,0.043,0.115,0.063,0.197,0.063h1.85
					c0.191,0,0.285-0.086,0.285-0.261v-2.76h1.011l1.511,2.794c0.016,0.07,0.055,0.125,0.109,0.166
					c0.056,0.04,0.117,0.061,0.189,0.061h2.133c0.076,0,0.137-0.016,0.18-0.053c0.043-0.033,0.064-0.083,0.064-0.152
					c0-0.054-0.024-0.121-0.07-0.199c-0.045-0.074-0.084-0.145-0.109-0.199l-1.602-2.963c0.225-0.129,0.432-0.278,0.619-0.454
					c0.19-0.177,0.352-0.374,0.488-0.595c0.139-0.217,0.244-0.451,0.321-0.703c0.075-0.25,0.114-0.512,0.114-0.791
					c0-0.408-0.08-0.793-0.239-1.152c-0.16-0.361-0.378-0.68-0.656-0.945c-0.276-0.271-0.603-0.482-0.978-0.639
					c-0.373-0.156-0.773-0.238-1.202-0.238H274.559L274.559,45.035z"/>
			</g>
			<g>
				<defs>
					<path id="SVGID_3_" d="M276.693,46.908h0.859c0.118,0,0.229,0,0.332,0.01c0.104,0.006,0.211,0.013,0.327,0.022
						c0.14,0.021,0.271,0.063,0.386,0.131c0.116,0.073,0.217,0.155,0.299,0.259c0.084,0.102,0.148,0.215,0.192,0.336
						c0.046,0.123,0.067,0.244,0.067,0.369c0,0.129-0.021,0.256-0.062,0.383c-0.042,0.121-0.103,0.233-0.181,0.336
						c-0.077,0.098-0.178,0.184-0.292,0.248c-0.116,0.068-0.247,0.111-0.394,0.125c-0.07,0.013-0.136,0.015-0.191,0.021
						c-0.061,0.002-0.125,0.005-0.2,0.005h-1.146v-2.244H276.693z M274.559,45.035c-0.091,0-0.158,0.024-0.205,0.082
						c-0.045,0.047-0.069,0.114-0.069,0.198v8.543c0,0.088,0.028,0.154,0.077,0.197c0.048,0.043,0.115,0.063,0.197,0.063h1.85
						c0.191,0,0.285-0.086,0.285-0.261v-2.76h1.011l1.511,2.794c0.016,0.07,0.055,0.125,0.109,0.166
						c0.056,0.04,0.117,0.061,0.189,0.061h2.133c0.076,0,0.137-0.016,0.18-0.053c0.043-0.033,0.064-0.083,0.064-0.152
						c0-0.054-0.024-0.121-0.07-0.199c-0.045-0.074-0.084-0.145-0.109-0.199l-1.602-2.963c0.225-0.129,0.432-0.278,0.619-0.454
						c0.19-0.177,0.352-0.374,0.488-0.595c0.139-0.217,0.244-0.451,0.321-0.703c0.075-0.25,0.114-0.512,0.114-0.791
						c0-0.408-0.08-0.793-0.239-1.152c-0.16-0.361-0.378-0.68-0.656-0.945c-0.276-0.271-0.603-0.482-0.978-0.639
						c-0.373-0.156-0.773-0.238-1.202-0.238H274.559L274.559,45.035z"/>
				</defs>
				<clipPath id="SVGID_4_">
					<use xlink:href="#SVGID_3_"  overflow="visible"/>
				</clipPath>
				<rect x="274.284" y="45.035" clip-path="url(#SVGID_4_)" fill="#FFFFFF" width="7.606" height="9.084"/>
			</g>
		</g>
		<path fill="#FFFFFF" d="M283.669,45.315c0-0.084,0.022-0.151,0.067-0.204c0.05-0.052,0.117-0.076,0.203-0.076h6.175
			c0.092,0,0.161,0.029,0.21,0.082c0.052,0.053,0.076,0.121,0.076,0.209v1.518c0,0.064-0.024,0.132-0.076,0.193
			c-0.049,0.066-0.12,0.096-0.217,0.096h-4.031v1.52h3.111c0.078,0,0.143,0.02,0.194,0.055c0.052,0.037,0.078,0.099,0.078,0.185
			v1.319c0,0.059-0.024,0.115-0.067,0.168c-0.047,0.054-0.113,0.076-0.199,0.076h-3.117v1.566h4.182
			c0.186,0,0.279,0.096,0.279,0.281v1.539c0,0.039-0.016,0.072-0.049,0.104c-0.019,0.118-0.104,0.173-0.256,0.173h-6.293
			c-0.082,0-0.149-0.023-0.197-0.063c-0.051-0.043-0.073-0.109-0.073-0.201V45.315L283.669,45.315z"/>
		<path fill="#FFFFFF" d="M292.557,45.315c0-0.084,0.022-0.151,0.066-0.204c0.046-0.052,0.115-0.076,0.205-0.076h3.979
			c0.285,0,0.555,0.041,0.809,0.117c0.253,0.079,0.484,0.188,0.695,0.32c0.213,0.138,0.403,0.301,0.574,0.49
			c0.168,0.188,0.313,0.393,0.432,0.613c0.119,0.221,0.211,0.451,0.271,0.692c0.063,0.245,0.094,0.489,0.094,0.739
			c0,0.365-0.067,0.727-0.201,1.074c-0.135,0.353-0.326,0.662-0.576,0.938c-0.249,0.273-0.547,0.496-0.896,0.666
			c-0.349,0.167-0.732,0.253-1.156,0.258h-1.888v2.914c0,0.174-0.094,0.26-0.284,0.26h-1.85c-0.082,0-0.148-0.023-0.197-0.063
			c-0.051-0.043-0.074-0.109-0.074-0.197v-8.542H292.557z M297.243,47.996c0-0.121-0.022-0.244-0.067-0.365
			c-0.042-0.123-0.105-0.233-0.189-0.328c-0.081-0.096-0.182-0.176-0.301-0.232c-0.119-0.066-0.252-0.097-0.401-0.097h-1.32v2.046
			h1.32c0.149,0,0.282-0.029,0.403-0.09c0.123-0.061,0.223-0.135,0.304-0.229c0.079-0.095,0.144-0.203,0.187-0.326
			C297.219,48.253,297.243,48.126,297.243,47.996"/>
	</g>
</g>
</svg>
